<mxfile host="app.diagrams.net" modified="2023-07-14T02:45:05.109Z" agent="Mozilla/5.0 (Windows NT 10.0; Win64; x64) AppleWebKit/537.36 (KHTML, like Gecko) Chrome/114.0.0.0 Safari/537.36" version="21.3.3" etag="NxaGkAbz7JXgASzhKhNR" type="github">
  <diagram name="第 1 页" id="1y5yeF_JT85zCjn2FiO2">
    <mxGraphModel>
      <root>
        <mxCell id="0" />
        <mxCell id="1" parent="0" />
      </root>
    </mxGraphModel>
  </diagram>
</mxfile>
